<?xml version="1.0" standalone="no"?>
<!DOCTYPE svg PUBLIC "-//W3C//DTD SVG 20010904//EN"
 "http://www.w3.org/TR/2001/REC-SVG-20010904/DTD/svg10.dtd">
<svg version="1.0" xmlns="http://www.w3.org/2000/svg"
 width="512.000000pt" height="512.000000pt" viewBox="0 0 512.000000 512.000000"
 preserveAspectRatio="xMidYMid meet">
<metadata>
Created by potrace 1.16, written by Peter Selinger 2001-2019
</metadata>
<g transform="translate(0.000000,512.000000) scale(0.100000,-0.100000)"
fill="#000000" stroke="none">
<path d="M1788 4870 c-20 -12 -152 -401 -173 -513 -21 -109 -21 -463 0 -534
18 -61 63 -125 110 -155 l35 -23 0 -90 c0 -66 5 -101 19 -131 51 -112 182
-169 296 -129 l39 14 40 -40 c93 -91 248 -87 339 8 l27 30 59 -16 c85 -22 153
-5 219 54 l49 44 44 -16 c78 -27 178 -2 240 60 65 64 64 61 64 407 0 212 -4
338 -13 385 -30 163 -147 617 -165 636 -28 30 -90 26 -116 -7 -12 -15 -21 -35
-21 -45 0 -10 31 -143 69 -296 38 -153 71 -296 74 -318 l6 -40 -59 3 c-72 4
-155 -29 -190 -76 -22 -29 -23 -30 -56 -16 -81 34 -216 1 -264 -64 -22 -29
-23 -30 -56 -16 -41 17 -129 17 -169 0 -28 -12 -32 -10 -60 19 -16 18 -38 36
-48 42 -17 9 -13 22 48 175 36 91 65 174 65 185 0 11 -9 32 -21 47 -27 35 -86
37 -116 4 -11 -13 -52 -104 -92 -204 -69 -173 -73 -181 -106 -193 -53 -19 -95
-59 -121 -116 l-24 -50 0 183 c0 220 7 259 95 522 36 107 65 202 65 211 0 9
-9 28 -21 43 -16 20 -29 26 -57 26 -20 0 -45 -5 -54 -10z m1227 -895 c25 -24
25 -26 25 -214 l0 -189 -31 -26 c-40 -34 -64 -33 -100 3 l-29 29 0 187 c0 184
0 186 25 210 15 16 36 25 55 25 19 0 40 -9 55 -25z m-964 -74 c23 -19 24 -24
27 -205 3 -196 0 -214 -43 -242 -30 -20 -66 -13 -95 18 -19 20 -20 35 -20 210
0 187 0 189 25 213 29 30 74 32 106 6z m644 -6 c25 -24 25 -26 25 -210 l0
-187 -29 -29 c-16 -16 -39 -29 -51 -29 -12 0 -35 13 -51 29 l-29 29 0 187 c0
184 0 186 25 210 15 16 36 25 55 25 19 0 40 -9 55 -25z m-320 -80 c25 -24 25
-26 25 -210 l0 -187 -29 -29 c-16 -16 -39 -29 -51 -29 -12 0 -35 13 -51 29
l-29 29 0 187 c0 184 0 186 25 210 15 16 36 25 55 25 19 0 40 -9 55 -25z"/>
<path d="M3335 4310 c-11 -12 -19 -36 -19 -57 0 -42 1 -43 169 -152 413 -269
699 -688 801 -1175 32 -153 43 -410 24 -576 -11 -107 -11 -114 8 -139 28 -38
92 -42 120 -7 52 67 57 511 7 745 -119 568 -453 1044 -933 1330 -97 58 -145
66 -177 31z"/>
<path d="M1270 4159 c-431 -325 -717 -827 -781 -1373 -13 -112 -7 -466 10
-531 19 -74 88 -99 137 -49 25 24 26 28 17 97 -4 40 -8 167 -7 282 0 187 3
224 27 336 95 452 341 841 708 1118 37 27 69 57 73 66 12 33 6 66 -19 90 -40
41 -73 33 -165 -36z"/>
<path d="M3360 3020 c-25 -12 -56 -31 -68 -43 -57 -53 -85 -162 -63 -244 6
-23 83 -151 174 -290 90 -136 167 -254 172 -262 11 -19 -17 -1 -290 178 -121
79 -240 151 -265 158 -82 26 -193 -1 -247 -59 -37 -39 -63 -108 -63 -168 0
-65 34 -146 75 -178 15 -12 169 -114 343 -228 175 -114 319 -209 322 -211 2
-2 -1 -12 -8 -21 -33 -45 -52 -100 -52 -153 0 -53 -2 -57 -26 -63 -39 -10
-121 -97 -133 -142 -17 -60 -13 -134 10 -184 25 -57 345 -376 472 -471 77 -57
476 -305 558 -346 55 -27 119 14 119 77 0 33 -41 65 -210 165 -91 54 -213 129
-272 168 l-107 70 27 21 c61 47 91 109 92 187 0 56 0 56 40 74 74 33 130 117
130 193 0 39 1 40 42 46 60 10 119 38 165 80 l41 36 63 -147 c35 -81 71 -155
81 -165 25 -25 83 -23 108 2 12 12 20 33 20 55 0 41 -171 444 -197 462 -9 7
-32 13 -51 13 -28 0 -46 -12 -117 -80 -112 -107 -154 -121 -237 -79 l-41 21
154 154 c235 235 248 236 447 40 68 -66 144 -147 168 -180 24 -32 90 -150 147
-262 102 -203 117 -224 166 -224 35 0 71 39 71 76 0 37 -161 370 -228 474 -20
30 -104 124 -186 208 -182 185 -215 205 -342 206 l-84 1 -311 475 c-170 261
-324 490 -341 508 -44 47 -84 64 -158 69 -51 3 -75 -1 -110 -17z m149 -167
c16 -16 165 -237 331 -492 l302 -463 -143 -144 -143 -143 -50 47 c-49 46 -81
64 -136 76 -14 3 -196 117 -405 254 -402 263 -410 270 -389 329 13 37 59 59
94 46 14 -5 215 -134 448 -286 461 -302 468 -306 512 -250 14 19 20 38 18 58
-2 18 -113 197 -282 454 -170 259 -280 437 -283 457 -4 26 0 38 20 58 34 34
69 33 106 -1z m289 -1416 c116 -116 132 -136 132 -165 0 -41 -38 -82 -77 -82
-22 0 -55 27 -165 138 -118 118 -138 142 -138 169 0 42 51 87 89 78 15 -3 83
-63 159 -138z m-171 -280 c121 -120 133 -136 133 -168 0 -47 -35 -82 -79 -77
-46 5 -301 259 -301 300 0 40 40 78 82 78 28 0 49 -17 165 -133z"/>
<path d="M1160 2421 c-19 -4 -48 -15 -65 -23 -45 -24 -703 -692 -762 -773 -28
-38 -114 -176 -192 -305 -156 -260 -166 -289 -115 -329 32 -25 61 -27 91 -6
12 9 86 122 164 251 77 129 167 270 199 312 32 42 203 221 379 396 287 287
323 319 352 319 23 0 39 -8 57 -28 45 -53 37 -64 -263 -365 -190 -191 -275
-282 -275 -297 0 -58 52 -103 102 -88 13 4 185 169 383 366 389 387 385 384
440 337 18 -16 26 -34 27 -56 1 -31 -24 -59 -330 -366 -329 -329 -332 -332
-332 -373 0 -33 5 -46 26 -62 56 -44 50 -49 469 368 214 214 400 392 412 395
58 18 115 -55 87 -110 -8 -16 -172 -187 -364 -379 -306 -306 -350 -354 -350
-380 0 -61 60 -101 112 -75 13 7 157 145 320 308 266 265 300 295 329 295 23
0 39 -8 56 -27 49 -57 58 -45 -417 -521 -309 -309 -440 -447 -440 -462 0 -36
21 -71 50 -83 22 -9 70 -3 261 31 129 23 246 42 262 42 36 0 77 -39 77 -74 0
-15 -10 -39 -22 -54 -22 -24 -51 -30 -568 -120 -518 -90 -546 -96 -567 -120
-29 -32 -29 -65 -2 -99 16 -20 29 -26 59 -26 45 0 1059 175 1109 191 46 15
110 76 132 124 23 50 24 142 3 193 -30 73 -107 133 -187 145 -20 3 -88 -3
-150 -14 -61 -10 -116 -19 -122 -19 -5 0 142 152 327 337 185 186 344 354 354
373 27 51 25 162 -3 216 -21 40 -77 97 -104 106 -11 4 -10 11 1 37 7 18 13 59
13 91 0 157 -144 266 -300 226 -39 -10 -59 -11 -62 -4 -10 30 -77 88 -123 108
-83 36 -189 18 -255 -43 -13 -11 -23 -15 -23 -9 0 22 -65 85 -105 103 -50 22
-110 29 -155 20z"/>
<path d="M3076 819 c-194 -70 -317 -90 -584 -96 l-232 -5 -20 -26 c-27 -33
-25 -65 4 -99 l24 -28 174 -3 c245 -5 430 21 643 88 152 49 192 68 205 99 23
57 -14 112 -75 110 -16 -1 -79 -19 -139 -40z"/>
</g>
</svg>
