<?xml version="1.0" standalone="no"?>
<!DOCTYPE svg PUBLIC "-//W3C//DTD SVG 20010904//EN"
 "http://www.w3.org/TR/2001/REC-SVG-20010904/DTD/svg10.dtd">
<svg version="1.0" xmlns="http://www.w3.org/2000/svg"
 width="800.000000pt" height="800.000000pt" viewBox="0 0 800.000000 800.000000"
 preserveAspectRatio="xMidYMid meet">
<metadata>
Created by potrace 1.16, written by Peter Selinger 2001-2019
</metadata>
<g transform="translate(0.000000,800.000000) scale(0.100000,-0.100000)"
fill="#000000" stroke="none">
<path d="M2985 7364 c-150 -22 -272 -62 -435 -144 -221 -110 -355 -204 -431
-305 -72 -95 -65 -127 55 -250 l75 -77 -29 -45 c-66 -103 -96 -256 -87 -440
22 -425 156 -876 320 -1074 193 -232 499 -316 672 -184 l45 35 60 -20 c103
-35 218 -23 335 34 38 19 72 33 74 30 3 -2 35 -178 73 -391 75 -427 90 -474
163 -542 90 -83 193 -76 277 17 61 68 73 121 73 327 -1 195 -19 353 -59 521
-14 54 -23 100 -21 102 1 2 24 -48 50 -110 164 -395 247 -520 372 -562 94 -32
164 -16 225 52 73 81 85 201 34 334 -33 85 -223 485 -407 855 -145 292 -150
303 -136 330 25 49 47 157 47 229 0 178 -77 329 -264 523 -128 131 -244 219
-371 281 -168 82 -262 96 -253 37 2 -15 23 -26 90 -48 167 -54 293 -134 452
-288 193 -188 276 -339 276 -506 0 -190 -161 -455 -322 -530 -98 -46 -210 -26
-251 45 -45 75 3 266 128 515 53 105 65 145 46 145 -12 0 -60 -56 -96 -112
-17 -27 -34 -48 -39 -48 -19 0 -151 118 -204 182 -39 47 -63 68 -78 68 -33 0
-40 -34 -15 -69 33 -47 159 -159 221 -197 l57 -35 -38 -92 c-21 -51 -39 -100
-39 -109 0 -31 -16 -19 -30 21 -17 52 -76 129 -125 163 -73 51 -180 54 -268 7
-37 -19 -41 -19 -58 -3 -17 16 -17 17 5 53 34 54 46 97 46 166 0 67 -16 99
-46 93 -15 -3 -19 -11 -17 -43 8 -121 5 -153 -13 -191 l-19 -39 -100 -6 c-203
-13 -320 -82 -345 -203 -13 -62 -11 -96 20 -366 19 -156 45 -319 55 -328 2 -2
9 -1 16 3 14 9 7 207 -16 466 -16 166 -14 202 11 251 28 55 165 108 279 108
57 0 77 -10 80 -37 1 -10 6 -34 13 -53 26 -83 46 -336 46 -610 1 -274 1 -275
-24 -325 -80 -159 -317 -160 -526 -2 -177 134 -302 411 -373 828 -47 275 -48
483 -2 614 53 152 182 280 381 380 84 42 353 133 474 160 100 22 211 16 260
-14 42 -26 62 -26 76 -1 12 22 -8 48 -58 74 -27 14 -29 18 -24 64 6 68 -15
185 -42 224 -13 21 -37 38 -61 46 -41 14 -207 24 -260 16z m240 -84 c35 -13
65 -132 51 -202 l-6 -33 -70 -2 c-82 -3 -181 -27 -380 -92 -221 -73 -364 -151
-488 -266 l-60 -55 -67 90 c-65 87 -67 92 -54 117 86 161 545 415 816 452 74
10 221 5 258 -9z m200 -1303 c48 -27 100 -100 120 -171 8 -28 26 -150 40 -271
13 -121 27 -236 31 -256 3 -22 1 -40 -5 -44 -15 -9 -14 -56 3 -145 8 -41 14
-75 13 -76 -1 0 -24 -15 -50 -33 -83 -56 -149 -75 -264 -75 -56 -1 -105 2
-108 6 -4 4 1 28 11 55 17 43 19 79 19 343 -1 271 -14 474 -41 609 -5 24 0 30
43 54 62 34 131 36 188 4z m841 -219 c16 -52 136 -325 301 -682 205 -445 211
-460 219 -530 8 -65 -7 -115 -48 -162 -82 -93 -211 -35 -316 143 -46 78 -52
92 -149 323 -107 257 -149 320 -213 320 -53 0 -54 -16 -11 -162 101 -336 140
-736 86 -890 -35 -101 -128 -138 -203 -82 -59 46 -76 102 -136 444 -31 173
-67 379 -81 457 -14 78 -25 168 -25 200 0 32 -7 127 -15 212 -8 85 -13 157
-10 159 2 2 17 -5 33 -17 71 -50 179 -48 285 5 65 33 194 161 233 231 16 29
32 53 36 53 4 0 10 -10 14 -22z"/>
<path d="M4303 5383 c-23 -9 -13 -47 27 -108 67 -100 175 -302 240 -450 67
-150 67 -151 76 -143 8 9 -31 133 -82 260 -72 179 -211 437 -239 444 -5 1 -16
0 -22 -3z"/>
<path d="M3867 6543 c-20 -19 -1 -58 63 -135 83 -98 130 -185 130 -240 0 -28
4 -38 16 -38 26 0 14 131 -16 190 -48 94 -153 230 -177 230 -5 0 -13 -3 -16
-7z"/>
<path d="M5504 4410 c-18 -6 -46 -26 -63 -45 -27 -32 -31 -43 -31 -96 0 -114
63 -269 198 -484 102 -164 186 -326 211 -409 39 -127 40 -276 3 -276 -29 0
-203 189 -297 324 -233 332 -327 440 -462 529 -115 76 -183 101 -283 101 -68
1 -92 -3 -119 -19 -73 -43 -100 -116 -76 -209 28 -106 95 -192 393 -500 204
-212 318 -355 381 -479 45 -92 50 -117 22 -117 -50 0 -182 91 -406 279 -244
204 -364 277 -516 315 -158 39 -282 -1 -330 -108 -42 -92 -10 -165 135 -312
165 -166 287 -248 706 -474 307 -166 377 -207 445 -264 91 -75 145 -154 145
-213 0 -58 -22 -64 -200 -57 -177 7 -246 -4 -359 -58 -88 -42 -191 -144 -214
-212 -38 -111 -7 -225 75 -282 32 -23 54 -29 107 -32 72 -4 117 6 242 56 162
65 311 76 647 46 195 -17 337 -10 457 21 94 24 202 82 262 140 49 47 54 55 44
74 -17 31 -37 26 -94 -24 -145 -127 -335 -164 -696 -134 -91 7 -224 13 -296
12 -142 -1 -216 -17 -410 -87 -105 -37 -157 -44 -200 -24 -35 16 -31 25 13 30
20 3 59 16 85 28 l48 23 15 -22 c18 -25 59 -28 68 -5 7 18 -31 92 -55 107 -12
7 -30 -1 -76 -37 -72 -56 -145 -83 -164 -60 -6 8 -14 34 -17 59 -14 129 117
254 314 301 56 13 99 15 224 10 144 -6 157 -5 188 14 36 22 72 75 72 105 0 78
-74 194 -175 274 -82 66 -199 135 -480 286 -246 132 -341 189 -469 279 -107
76 -252 214 -301 285 -81 120 17 222 186 193 166 -29 286 -100 559 -332 232
-198 364 -278 438 -267 51 9 86 50 78 91 -17 83 -124 262 -237 397 -35 42
-146 161 -246 265 -227 237 -276 294 -313 368 -47 92 -39 160 20 191 82 43
238 -8 387 -127 86 -68 167 -165 335 -401 101 -143 174 -233 248 -308 115
-117 149 -135 196 -104 44 29 57 77 51 190 -9 168 -52 274 -235 576 -115 189
-141 239 -172 329 -32 93 -38 165 -15 190 50 55 141 24 244 -85 102 -108 148
-193 264 -490 99 -253 130 -305 194 -321 38 -10 72 4 89 38 22 42 14 184 -21
393 -27 162 -33 334 -14 410 6 25 22 56 35 70 19 21 27 23 46 14 27 -12 78
-83 107 -149 11 -25 41 -129 66 -230 110 -447 193 -693 360 -1075 143 -325
168 -401 181 -541 12 -132 -31 -282 -105 -366 -34 -39 -37 -48 -18 -48 20 0
83 70 117 130 27 47 30 50 25 22 -6 -30 -4 -33 31 -48 21 -9 69 -21 107 -28
l69 -11 -23 -30 c-119 -155 -601 -656 -616 -641 -4 4 -13 33 -19 64 -7 31 -17
70 -23 86 -10 26 -14 28 -26 15 -12 -12 -13 -31 -6 -112 5 -54 15 -105 22
-113 18 -22 62 -16 110 15 57 38 396 381 528 536 167 194 173 246 30 258 -83
7 -183 43 -175 63 17 43 28 157 23 228 -9 117 -39 220 -119 406 -217 503 -307
764 -407 1182 -59 245 -103 349 -181 423 -41 39 -97 41 -135 5 -88 -82 -105
-253 -55 -570 25 -156 31 -321 13 -327 -22 -8 -63 71 -140 267 -125 321 -190
436 -305 546 -98 94 -185 128 -264 104z"/>
<path d="M2323 4380 c-107 -22 -235 -104 -363 -231 -99 -99 -199 -240 -224
-316 l-16 -49 -113 -12 c-132 -14 -282 -50 -367 -88 -145 -65 -223 -206 -266
-483 -42 -269 -6 -672 76 -856 102 -227 131 -274 239 -388 126 -131 310 -238
495 -286 103 -27 150 -26 266 3 206 53 387 129 529 223 183 120 408 392 399
479 -4 31 -3 32 47 38 56 6 236 90 344 160 95 61 202 165 261 253 149 222 94
445 -126 509 l-53 15 16 42 c8 23 17 80 20 127 5 78 3 88 -19 120 -51 75 -136
104 -299 104 l-96 0 5 103 c4 96 3 106 -23 158 -62 128 -214 169 -364 100 -29
-14 -55 -25 -56 -25 -2 0 -1 16 2 34 27 170 -131 304 -314 266z m153 -79 c64
-29 89 -72 88 -153 0 -59 -6 -78 -46 -160 -35 -69 -169 -290 -193 -316 -1 -1
-26 8 -56 22 -98 43 -252 73 -423 84 l-107 7 70 103 c85 125 131 179 222 258
173 150 333 206 445 155z m415 -226 c87 -31 129 -94 129 -194 0 -191 -183
-493 -452 -746 -106 -100 -149 -125 -212 -125 -36 0 -48 5 -65 26 -12 15 -21
29 -21 33 0 3 30 28 66 55 182 134 215 320 85 469 l-32 36 86 138 c48 76 101
168 118 205 30 64 34 68 87 87 97 35 146 39 211 16z m-950 -376 c200 -26 324
-74 401 -157 130 -139 61 -321 -164 -432 -103 -50 -174 -64 -246 -49 -29 6
-60 8 -68 5 -22 -8 -18 -57 5 -63 11 -3 29 -26 42 -56 44 -102 20 -331 -43
-402 -37 -42 -36 -81 2 -77 60 7 103 101 115 254 6 76 -7 182 -30 239 -5 13 5
17 60 22 36 4 93 18 128 31 39 17 63 22 66 15 2 -6 16 -26 32 -44 48 -55 126
-66 210 -31 13 6 19 -6 33 -61 31 -128 104 -198 205 -198 31 0 68 3 82 7 26 8
26 8 37 -72 12 -96 35 -145 90 -187 23 -17 38 -34 33 -37 -5 -4 -28 -41 -51
-84 -150 -278 -435 -472 -851 -577 -123 -32 -147 -30 -298 21 -121 40 -202 83
-298 156 -64 49 -66 50 -43 17 13 -19 37 -51 53 -72 53 -68 19 -52 -62 30 -61
62 -87 98 -116 159 -20 44 -54 113 -75 154 -45 88 -80 201 -112 360 -20 101
-23 144 -23 350 0 241 11 337 52 465 62 196 172 276 429 314 86 13 308 13 405
0z m1332 -14 c123 -26 165 -72 153 -169 -15 -120 -79 -250 -187 -381 -150
-182 -421 -367 -539 -369 -82 -2 -138 67 -155 189 l-6 50 129 130 c173 174
297 344 354 488 12 29 28 58 37 65 20 16 129 15 214 -3z m252 -403 c169 -93
162 -295 -18 -498 -105 -118 -344 -265 -479 -296 -89 -19 -147 47 -148 168 0
33 -5 65 -10 70 -8 8 9 23 56 50 197 115 432 355 494 503 16 39 39 40 105 3z"/>
<path d="M1992 3616 c-42 -48 -81 -136 -99 -223 -14 -68 -14 -76 0 -91 13 -13
21 -13 42 -4 41 19 73 14 135 -20 73 -40 90 -34 90 29 0 54 24 112 63 159 15
18 27 39 27 47 0 34 -124 116 -177 117 -12 0 -25 5 -28 10 -10 17 -22 12 -53
-24z m133 -74 c48 -27 48 -27 16 -77 -17 -27 -34 -64 -37 -83 -6 -28 -10 -33
-28 -28 -11 4 -43 12 -71 18 -27 6 -51 13 -53 14 -5 3 25 118 42 158 l14 35
49 -13 c27 -7 58 -18 68 -24z"/>
<path d="M1192 3301 c-30 -67 -45 -180 -40 -282 6 -98 19 -132 51 -127 21 3
22 6 19 123 -3 78 2 154 12 217 20 121 20 118 -3 118 -13 0 -25 -15 -39 -49z"/>
<path d="M2153 2530 c-61 -31 -91 -55 -80 -66 3 -3 30 6 61 21 69 34 157 36
220 6 51 -25 72 -26 80 -5 15 40 -54 74 -152 74 -57 0 -80 -5 -129 -30z"/>
<path d="M6400 2575 c0 -123 54 -239 109 -233 34 4 44 53 13 62 -27 9 -73 116
-79 187 -5 49 -9 59 -24 59 -17 0 -19 -9 -19 -75z"/>
<path d="M6015 2286 c-100 -25 -195 -91 -195 -136 0 -28 11 -25 45 10 90 94
315 102 496 19 66 -30 71 -31 87 -16 22 23 9 44 -45 75 -97 54 -275 76 -388
48z"/>
<path d="M1017 2185 c-27 -7 -71 -16 -98 -20 -50 -7 -79 -31 -79 -66 0 -32 61
-98 187 -204 231 -193 591 -457 676 -496 53 -23 69 -24 97 -1 20 16 23 27 21
87 -1 38 -3 70 -5 72 -1 2 -17 6 -34 9 l-32 7 0 -57 0 -56 -37 19 c-146 76
-801 583 -796 616 1 5 23 15 50 22 77 20 123 44 123 65 0 21 -7 21 -73 3z"/>
<path d="M5792 1708 c10 -74 333 -133 346 -64 6 32 -14 39 -105 37 -98 -2
-185 13 -204 35 -18 22 -41 17 -37 -8z"/>
</g>
</svg>
